<?xml version="1.0" encoding="UTF-8" standalone="no"?>
<!-- Created with Inkscape (http://www.inkscape.org/) -->

<svg
   width="48"
   height="48"
   viewBox="0 0 48 48"
   version="1.1"
   id="svg1"
   inkscape:version="1.4.4 (dcaf3e7d9e, 2026-05-05)"
   sodipodi:docname="alexandria-icon-48x48.svg"
   xmlns:inkscape="http://www.inkscape.org/namespaces/inkscape"
   xmlns:sodipodi="http://sodipodi.sourceforge.net/DTD/sodipodi-0.dtd"
   xmlns:xlink="http://www.w3.org/1999/xlink"
   xmlns="http://www.w3.org/2000/svg"
   xmlns:svg="http://www.w3.org/2000/svg">
  <sodipodi:namedview
     id="namedview1"
     pagecolor="#ffffff"
     bordercolor="#666666"
     borderopacity="1.0"
     inkscape:showpageshadow="2"
     inkscape:pageopacity="0.0"
     inkscape:pagecheckerboard="0"
     inkscape:deskcolor="#d1d1d1"
     inkscape:document-units="px"
     inkscape:zoom="8"
     inkscape:cx="-15.1875"
     inkscape:cy="42.5"
     inkscape:window-width="2120"
     inkscape:window-height="1011"
     inkscape:window-x="45"
     inkscape:window-y="45"
     inkscape:window-maximized="0"
     inkscape:current-layer="layer1" />
  <defs
     id="defs1">
    <radialGradient
       inkscape:collect="always"
       xlink:href="#linearGradient6"
       id="radialGradient7"
       cx="91.810417"
       cy="166.89873"
       fx="91.810417"
       fy="166.89873"
       r="99.21875"
       gradientTransform="matrix(0.234745,-0.00183581,0.00250402,0.35557085,-1.3045263,-19.756785)"
       gradientUnits="userSpaceOnUse" />
    <linearGradient
       id="linearGradient6"
       inkscape:collect="always">
      <stop
         style="stop-color:#7aa2dc;stop-opacity:1;"
         offset="0"
         id="stop6" />
      <stop
         style="stop-color:#48629e;stop-opacity:1;"
         offset="1"
         id="stop7" />
    </linearGradient>
  </defs>
  <g
     inkscape:label="Layer 1"
     inkscape:groupmode="layer"
     id="layer1">
    <rect
       style="font-variation-settings:'opsz' 32, 'wght' 700;fill:url(#radialGradient7);stroke:none;stroke-width:0.586092;stroke-linecap:round;stroke-linejoin:round;stroke-dasharray:none;stroke-opacity:1"
       id="rect4"
       width="46.583492"
       height="46.733612"
       x="0.85191089"
       y="0.73613173"
       ry="2.5174983" />
    <path
       style="fill:#f4d7b2;fill-opacity:1;stroke:#be8d4e;stroke-width:0.633828;stroke-linecap:butt;stroke-linejoin:miter;stroke-dasharray:none;stroke-opacity:1"
       d="m 37.260196,42.933207 c -2.670793,0 -5.594032,-0.105984 -6.397465,-0.186335 -1.475148,-0.147518 -1.832286,-1.024843 -1.832286,-1.024843 0,0 -0.470104,0.964465 -1.628941,0.89685 -1.479779,-0.08633 -3.526299,-0.244677 -8.68154,0.0035 -5.155241,0.248446 -3.385068,0 -5.807413,0.37267 -2.422337,0.37267 -3.4782272,1.428559 -3.1676776,0.186335 0.3105586,-1.242224 1.4285676,-11.67693 1.7391176,-13.105489 0.310558,-1.42856 0.993787,-3.975129 0.993787,-3.975129 0,0 1.517139,0.224238 3.136621,0.341615 1.140441,0.08268 2.890486,0.209913 5.138286,0.327513 1.39801,0.07317 0.748007,-8.89e-4 5.283553,-0.05148 3.271444,-0.03637 3.765713,-0.186095 5.696048,-0.369229 1.056449,-0.10023 3.255189,-0.641886 3.255189,-0.641886 l 1.46527,9.772256 z"
       id="path3"
       sodipodi:nodetypes="cscssssscssssccc" />
    <path
       style="fill:none;stroke:#825926;stroke-width:0.332651;stroke-linecap:butt;stroke-linejoin:miter;stroke-dasharray:none;stroke-opacity:1"
       d="m 28.636685,39.404064 c 0,0 -0.426863,0.43275 -0.553093,0.940902 -0.06553,0.263868 -0.247132,1.072662 -0.247132,1.072662"
       id="path11-5-4-8-1"
       sodipodi:nodetypes="csc" />
    <path
       style="fill:none;stroke:#825926;stroke-width:0.332651;stroke-linecap:butt;stroke-linejoin:miter;stroke-dasharray:none;stroke-opacity:1"
       d="m 27.657927,39.387171 c 0,0 -0.426863,0.43275 -0.553093,0.940902 -0.06553,0.263868 -0.247132,1.072662 -0.247132,1.072662"
       id="path11-5-4-8-3"
       sodipodi:nodetypes="csc" />
    <path
       style="fill:none;stroke:#825926;stroke-width:0.332651;stroke-linecap:butt;stroke-linejoin:miter;stroke-dasharray:none;stroke-opacity:1"
       d="m 16.197654,34.449466 c 0,0 -0.3706,0.48181 -0.43359,1.001603 -0.03269,0.26991 -0.113785,1.094865 -0.113785,1.094865"
       id="path11-5"
       sodipodi:nodetypes="csc" />
    <path
       style="fill:none;stroke:#825926;stroke-width:0.332651;stroke-linecap:butt;stroke-linejoin:miter;stroke-dasharray:none;stroke-opacity:1"
       d="m 18.736726,34.637233 c 0,0 -0.426863,0.43275 -0.553093,0.940902 -0.06553,0.263868 -0.247132,1.072662 -0.247132,1.072662"
       id="path11-5-4"
       sodipodi:nodetypes="csc" />
    <path
       style="fill:none;stroke:#825926;stroke-width:0.332651;stroke-linecap:butt;stroke-linejoin:miter;stroke-dasharray:none;stroke-opacity:1"
       d="m 25.227248,34.636297 c 0,0 -0.426863,0.43275 -0.553093,0.940902 -0.06553,0.263868 -0.247132,1.072662 -0.247132,1.072662"
       id="path11-5-4-8"
       sodipodi:nodetypes="csc" />
    <path
       style="fill:none;stroke:#825926;stroke-width:0.313853;stroke-linecap:butt;stroke-linejoin:miter;stroke-dasharray:none;stroke-opacity:1"
       d="m 23.968172,28.109349 c 0,0 -0.43259,0.380124 -0.560513,0.82648 -0.06641,0.23178 -0.250448,0.942217 -0.250448,0.942217"
       id="path11-5-4-8-17"
       sodipodi:nodetypes="csc" />
    <path
       style="fill:#e59820;fill-opacity:1;stroke:#9a631b;stroke-width:0.562914;stroke-linecap:butt;stroke-linejoin:miter;stroke-dasharray:none;stroke-opacity:1"
       d="m 35.17063,25.998402 c -0.05442,-0.57964 -0.304816,-1.658797 -0.429794,-2.166075 -0.09051,-0.36737 -0.269696,-0.978432 -0.863225,-0.893328 -0.535791,0.07682 -0.877405,0.263837 -0.859926,0.739569 0.02668,0.726234 0.323762,1.587947 0.662442,2.680057 0.182094,0.322632 0.658601,0.341614 0.840534,0.326615 0.413916,-0.03414 0.620264,-0.389981 0.649969,-0.686838 z"
       id="path4-1-0"
       sodipodi:nodetypes="cssscsc" />
    <path
       style="fill:#e59820;fill-opacity:1;stroke:#9a631b;stroke-width:0.562914;stroke-linecap:butt;stroke-linejoin:miter;stroke-dasharray:none;stroke-opacity:1"
       d="m 11.256591,26.237389 c 0.03957,-0.580841 0.262335,-1.666043 0.374306,-2.176353 0.08108,-0.369566 0.244606,-0.985003 0.840118,-0.915102 0.537577,0.06313 0.883859,0.241334 0.878542,0.71736 -0.008,0.726678 -0.283077,1.595699 -0.593741,2.696114 -0.173791,0.327175 -0.649656,0.35832 -0.83192,0.34798 -0.414643,-0.02356 -0.630025,-0.373995 -0.667305,-0.669999 z"
       id="path4-1-0-4"
       sodipodi:nodetypes="cssscsc" />
    <path
       style="fill:#f4d7b2;fill-opacity:1;stroke:#b8965d;stroke-width:0.633828;stroke-linecap:butt;stroke-linejoin:miter;stroke-dasharray:none;stroke-opacity:1"
       d="m 36.596974,25.593102 4.006185,15.931553 c 0,0 -0.242952,-1.106701 -1.987564,-1.459615 -1.017072,-0.205744 -1.762412,0.05823 -2.263181,0.271732 -0.728332,0.310531 -1.125772,0.974368 -1.401389,1.43632 -0.277893,0.465766 -0.310559,0.869563 -0.310559,0.869563 L 32.124961,26.36949 c 0,0 0.244856,-0.942513 0.869556,-1.304336 0.604064,-0.349874 1.713751,-0.611817 2.371214,-0.326864 0.871902,0.377888 1.231243,0.854812 1.231243,0.854812 z"
       id="path1"
       sodipodi:nodetypes="ccsssccssc" />
    <path
       style="fill:#f4d7b2;fill-opacity:1;stroke:#b8965d;stroke-width:0.633828;stroke-linecap:butt;stroke-linejoin:miter;stroke-dasharray:none;stroke-opacity:1"
       d="M 9.869109,25.65116 5.8629244,41.582721 c 0,0 0.2429521,-1.106701 1.987564,-1.459615 1.0170714,-0.205744 1.7624113,0.05823 2.2631816,0.271731 0.728332,0.310532 1.125771,0.974378 1.401389,1.436331 0.277892,0.465757 0.310558,0.869554 0.310558,0.869554 l 2.515504,-16.273166 c 0,0 -0.244855,-0.942513 -0.869555,-1.304336 -0.604063,-0.349865 -1.713751,-0.611817 -2.371213,-0.326864 -0.871902,0.377889 -1.231244,0.854804 -1.231244,0.854804 z"
       id="path1-6"
       sodipodi:nodetypes="ccsssccssc" />
    <ellipse
       style="font-variation-settings:'opsz' 32, 'wght' 700;fill:#96713b;fill-opacity:1;stroke:#b8965d;stroke-width:0.671032;stroke-linecap:round;stroke-linejoin:round;stroke-dasharray:none;stroke-opacity:1"
       id="path2"
       cx="17.04137"
       cy="39.510708"
       rx="2.9972486"
       ry="1.9872735"
       transform="matrix(0.97970662,0.20043686,-0.19877203,0.98004575,0,0)" />
    <ellipse
       style="font-variation-settings:'opsz' 32, 'wght' 700;fill:#9b783f;fill-opacity:1;stroke:#b8965d;stroke-width:0.672187;stroke-linecap:round;stroke-linejoin:round;stroke-dasharray:none;stroke-opacity:1"
       id="path2-4"
       cx="-28.46726"
       cy="48.842258"
       rx="3.0079627"
       ry="1.9870245"
       transform="matrix(-0.97986398,0.19966616,0.19953957,0.97988977,0,0)" />
    <path
       style="fill:#e59820;fill-opacity:1;stroke:#9a631b;stroke-width:0.610353;stroke-linecap:butt;stroke-linejoin:miter;stroke-dasharray:none;stroke-opacity:1"
       d="M 9.6286724,42.391204 C 9.6061822,43.022047 9.402747,44.205893 9.2992834,44.762845 9.2243381,45.16618 9.0687076,45.838863 8.4208909,45.78397 7.836103,45.734452 7.4545955,45.553395 7.4436864,45.037342 7.427061,44.249548 7.6945603,43.298153 7.9926803,42.094747 c 0.1768753,-0.360659 0.6914794,-0.411079 0.8893633,-0.406251 0.4501805,0.01096 0.6958714,0.383232 0.7466288,0.702708 z"
       id="path4"
       sodipodi:nodetypes="cssscsc" />
    <path
       style="fill:#e59820;fill-opacity:1;stroke:#9a631b;stroke-width:0.610353;stroke-linecap:butt;stroke-linejoin:miter;stroke-dasharray:none;stroke-opacity:1"
       d="m 36.784376,42.544482 c 0.02259,0.630843 0.225927,1.814691 0.329399,2.371642 0.07495,0.403334 0.230576,1.076017 0.878383,1.021126 0.584788,-0.04952 0.966295,-0.230576 0.977214,-0.74663 0.01663,-0.787793 -0.250883,-1.739189 -0.548994,-2.942595 -0.176884,-0.360658 -0.691488,-0.411079 -0.889372,-0.406251 -0.450172,0.01096 -0.695863,0.383233 -0.74663,0.702708 z"
       id="path4-1"
       sodipodi:nodetypes="cssscsc" />
    <path
       d="M 25.080773,12.834537 24.369855,9.1022175 Q 23.64278,5.289112 20.782951,5.2729548 q -1.583408,-0.016157 -2.568999,1.7772949 -1.244107,2.2135401 -1.244107,5.1703123 0,3.55459 1.195635,5.251099 1.244106,1.728823 2.617471,1.728823 2.148911,0 3.312231,-3.441489 z M 20.782951,2.7524275 q 5.00874,-0.080786 5.962016,5.137998 l 1.599566,-4.7340674 h 2.649785 l -3.312232,9.8074369 0.64629,3.538432 q 0.145415,0.791704 0.710918,1.454151 0.662446,0.775547 1.179477,0.775547 h 1.421836 v 2.520527 h -1.777295 q -1.518779,0 -2.875986,-1.357207 -0.662447,-0.678604 -0.937119,-2.10044 -0.743233,1.761138 -2.229698,3.199131 -0.727075,0.678604 -3.037558,0.662447 -3.199131,-0.03232 -5.041055,-2.455899 -1.906553,-2.520527 -1.906553,-6.979922 0,-4.798696 2.035811,-6.9799216 2.310483,-2.4397413 4.911797,-2.4882129 z"
       id="text6"
       style="font-size:33.09px;line-height:1.25;font-family:'DejaVu Sans Mono';-inkscape-font-specification:'DejaVu Sans Mono, @opsz=32';font-variation-settings:'opsz' 32;text-align:center;letter-spacing:0px;word-spacing:0px;text-anchor:middle;fill:#cbcbcb;stroke-width:0.172284"
       aria-label="α " />
    <path
       id="text6-6"
       style="font-style:normal;font-variant:normal;font-weight:normal;font-stretch:normal;font-size:140.958px;line-height:1.25;font-family:'DejaVu Sans Mono';-inkscape-font-specification:'DejaVu Sans Mono, @opsz=32';font-variant-ligatures:normal;font-variant-caps:normal;font-variant-numeric:normal;font-variant-east-asian:normal;font-variation-settings:'opsz' 32;text-align:center;letter-spacing:0px;word-spacing:0px;text-anchor:middle;fill:#ffffff;fill-opacity:1;stroke-width:0.172284;stroke-dasharray:none"
       d="m 20.673286,2.8707766 c -1.734218,0.032365 -3.371438,0.861721 -4.911773,2.4882175 -1.35721,1.4541563 -2.035841,3.7808632 -2.035841,6.9800049 0,2.97294 0.635493,5.299522 1.906523,6.97988 0.237005,0.311847 0.490892,0.594052 0.761593,0.846509 -0.156559,-0.167656 -0.306931,-0.346344 -0.451035,-0.535951 -1.271039,-1.680358 -1.906523,-4.006949 -1.906523,-6.97988 0,-3.1991413 0.678631,-5.5258483 2.035842,-6.9800045 1.540326,-1.6264965 3.177554,-2.4558994 4.911772,-2.4882186 1.72412,-0.027828 3.087891,0.415347 4.091217,1.329453 C 24.049712,3.3866608 22.582433,2.8399874 20.673286,2.8707766 Z m 7.561565,0.4039737 -1.452697,4.2995039 c 0.06206,0.238649 0.11663,0.4870153 0.163769,0.7450998 L 28.54541,3.5852999 h 2.234313 l 0.104932,-0.3105496 z m -5.157667,3.1673133 c 0.556897,0.6367645 0.951252,1.5629443 1.183028,2.7785052 l 0.710888,3.7323802 -0.985536,2.924449 c -0.775551,2.294335 -1.879664,3.441481 -3.312278,3.441481 -0.621098,0 -1.222335,-0.265188 -1.803781,-0.795556 0.677227,0.737409 1.381981,1.106114 2.114339,1.106114 1.432606,0 2.536727,-1.147146 3.312279,-3.441481 L 25.281658,13.263507 24.57077,9.5311272 C 24.298017,8.1006919 23.800145,7.0709949 23.077184,6.4420636 Z m 3.173989,11.7817344 c -0.04854,0.114941 -0.09949,0.22886 -0.152728,0.341739 0.186069,0.623917 0.445905,1.106558 0.779303,1.448092 0.07015,0.07014 0.140556,0.137542 0.211319,0.202223 -0.389501,-0.452795 -0.668808,-1.116792 -0.837894,-1.992054 z m 3.064685,0.248206 c 0.410989,0.459294 0.778938,0.688928 1.10381,0.688928 h 1.111334 V 18.850374 H 30.10911 c -0.240755,0 -0.505197,-0.126117 -0.793252,-0.37837 z" />
    <path
       id="text6-6-0"
       style="font-style:normal;font-variant:normal;font-weight:normal;font-stretch:normal;font-size:140.958px;line-height:1.25;font-family:'DejaVu Sans Mono';-inkscape-font-specification:'DejaVu Sans Mono, @opsz=32';font-variant-ligatures:normal;font-variant-caps:normal;font-variant-numeric:normal;font-variant-east-asian:normal;font-variation-settings:'opsz' 32;text-align:center;letter-spacing:0px;word-spacing:0px;text-anchor:middle;fill:#717171;fill-opacity:1;stroke-width:0.172284;stroke-dasharray:none"
       d="m 30.697474,3.2747415 -3.249207,9.6210745 0.646225,3.538525 c 0.09694,0.527806 0.333888,1.012528 0.710887,1.454155 0.301445,0.352915 0.580406,0.585393 0.836685,0.697419 -0.166953,-0.125611 -0.342272,-0.295978 -0.526011,-0.511084 -0.377,-0.441636 -0.614058,-0.926348 -0.711003,-1.454156 l -0.646224,-3.538524 3.312162,-9.8074095 z m -6.643369,0.2852109 c 1.270665,0.8306206 2.089693,2.2514449 2.457037,4.262508 L 26.676006,7.3344226 C 26.221344,5.5283127 25.347398,4.2701552 24.054105,3.5599524 Z m -3.505042,1.6450969 c -1.055605,-0.010741 -1.911948,0.5815694 -2.569009,1.7772059 -0.829404,1.4756984 -1.244048,3.1992218 -1.244048,5.1704088 0,2.369729 0.398552,4.120066 1.195646,5.251076 0.500058,0.694875 1.015702,1.180281 1.547082,1.456218 -0.422325,-0.287869 -0.834452,-0.711164 -1.236524,-1.269884 -0.797093,-1.131008 -1.195645,-2.881345 -1.195645,-5.251075 0,-1.971188 0.414643,-3.6947102 1.244047,-5.1704086 0.657062,-1.1956365 1.513396,-1.7879818 2.569009,-1.7772069 0.569354,0.00351 1.075289,0.1192001 1.517841,0.3481669 C 21.865837,5.387143 21.256394,5.2090498 20.549063,5.2050493 Z m 5.267329,12.5218647 c -0.495489,1.174093 -1.238722,2.240429 -2.229699,3.199097 -0.484713,0.452403 -1.497303,0.673253 -3.03763,0.662477 -1.186567,-0.012 -2.233157,-0.270719 -3.139652,-0.776147 0.975559,0.628256 2.125656,0.949101 3.45021,0.962482 1.540327,0.01074 2.552909,-0.210074 3.03763,-0.662477 0.880446,-0.851737 1.565319,-1.788516 2.054646,-2.810299 -0.05112,-0.18036 -0.09627,-0.37203 -0.135505,-0.575133 z m 5.590387,1.12346 v 2.334148 h -1.777331 c -0.579045,0 -1.140469,-0.147962 -1.684288,-0.443877 0.639948,0.420138 1.304878,0.630212 1.994846,0.630212 h 1.777331 v -2.520483 z" />
    <path
       style="fill:none;stroke:#876852;stroke-width:0.234752;stroke-linecap:round;stroke-linejoin:miter;stroke-dasharray:none;stroke-opacity:1"
       d="m 39.353164,42.580543 c 0.408962,-0.500574 0.136244,-1.163014 -0.468629,-1.402108 -0.767087,-0.344912 -1.716224,-0.287247 -2.43434,0.143632 -0.471767,0.335808 -0.741143,0.433039 -0.820957,1.438392 0.07486,0.336965 0.448918,0.657169 0.750346,0.720713"
       id="path7"
       sodipodi:nodetypes="ccccc" />
    <path
       style="fill:none;stroke:#8b6b54;stroke-width:0.234752;stroke-linecap:round;stroke-linejoin:miter;stroke-dasharray:none;stroke-opacity:1"
       d="M 7.1256598,42.523678 C 6.7166885,42.023113 6.989416,41.360662 7.594289,41.121569 c 0.7670874,-0.344913 1.7162231,-0.287237 2.434339,0.143632 0.471769,0.335818 0.741144,0.433048 0.820957,1.438402 -0.07486,0.336954 -0.448918,0.65716 -0.750354,0.720712"
       id="path7-5"
       sodipodi:nodetypes="ccccc" />
    <path
       style="fill:none;stroke:#825926;stroke-width:0.312796;stroke-linecap:butt;stroke-linejoin:miter;stroke-dasharray:none;stroke-opacity:1"
       d="m 16.046151,28.904803 c -0.01627,0.456416 0.497937,1.298958 1.260538,0.625954 0.0869,-0.07669 0.163404,-0.980707 0.59279,-0.695207 0.947338,0.629888 0.701954,0.227881 0.911838,0.112765 0.292732,-0.160563 0.715307,0.335079 0.715307,0.335079 l 0.366952,-0.669985 c 0,0 0.655765,0.836574 1.366413,0.711651 0.710648,-0.124923 2.082242,-0.83604 2.245311,-0.457842 0.163078,0.378202 1.170194,0.260963 1.170194,0.260963 0,0 1.090374,-0.884666 1.007333,-0.393331 -0.211178,1.249651 2.045127,0.444989 1.404664,0.201818 -0.644122,-0.244557 0.993359,0.30186 0.993359,0.30186 0,0 0.961847,-0.981144 1.073153,-0.388743 0.111295,0.592401 1.232394,0.09684 1.232394,0.09684 v 0"
       id="path8"
       sodipodi:nodetypes="csssccsscsscscc" />
    <path
       style="fill:none;stroke:#825926;stroke-width:0.361648;stroke-linecap:butt;stroke-linejoin:miter;stroke-dasharray:none;stroke-opacity:1"
       d="m 16.047985,32.107242 c 0,0 0.978642,1.144674 1.418955,1.036748 0.440302,-0.107935 1.100758,-1.025321 1.100758,-1.025321 l 0.484337,0.989343 c 0,0 1.783237,-0.197868 1.981373,-1.061299 0.03342,-0.14579 0.70456,0.860451 0.924639,0.593606 0.682481,-0.827453 2.431612,-0.702094 2.355802,-0.222064 -0.08808,0.557636 1.629045,0.178419 1.629045,0.178419 l 0.814489,-0.352094 1.188823,-0.179878"
       id="path9"
       sodipodi:nodetypes="csccsssccc" />
    <path
       style="fill:none;stroke:#825926;stroke-width:0.399078;stroke-linecap:butt;stroke-linejoin:miter;stroke-dasharray:none;stroke-opacity:1"
       d="m 28.738859,31.883222 c 0,0 0.91474,1.556873 1.269674,0.790132 0.62872,-1.358182 1.387855,-0.390462 1.387855,-0.390462"
       id="path11"
       sodipodi:nodetypes="csc" />
    <path
       style="fill:none;stroke:#825926;stroke-width:0.340157;stroke-linecap:butt;stroke-linejoin:miter;stroke-dasharray:none;stroke-opacity:1"
       d="m 15.054552,35.257719 c 0.166058,0.21164 0.548324,0.682958 0.947326,0.617221 0.398991,-0.06575 0.364148,-0.939765 0.920039,-0.590855 0.587784,0.368927 0.02816,0.82925 1.975397,0.580569 1.947236,-0.24869 2.220259,-0.442483 2.220259,-0.442483 0,0 0.563132,0.186797 0.830397,0.115716 0.267275,-0.0711 0.546182,-0.533898 1.139805,-0.05901 0.593622,0.474887 0.656564,0.213972 1.670256,0.173219 1.013695,-0.04077 0.212628,0.738792 1.189321,-0.03363 0.897145,-0.709512 1.576828,0.146054 2.029309,-0.122414 0.452478,-0.26846 -0.03481,0.356024 0.850991,0.228106 0.885809,-0.127908 0.469149,-0.853953 0.978795,-0.464439 0.509646,0.389513 0.788572,0.572474 0.788572,0.572474 l 0.640349,-0.408593 0.328423,-0.437412"
       id="path12"
       sodipodi:nodetypes="cssscsssssssccc" />
    <path
       style="fill:none;stroke:#825926;stroke-width:0.333276;stroke-linecap:butt;stroke-linejoin:miter;stroke-dasharray:none;stroke-opacity:1"
       d="m 14.10572,38.683267 c 0.528154,-0.03057 1.039505,-0.689034 2.436568,-0.486307 0,0 1.318211,0.545337 1.474418,0.213958 0.497085,-1.054505 1.232356,-0.183391 1.496432,-0.03057 0.264077,0.152825 0.462134,0.27509 1.034301,0.244524 0.572169,-0.03057 1.975132,-0.311867 1.975132,-0.311867 0,0 1.193783,-0.33 1.413865,-0.146615 0.220072,0.183397 1.28324,0.928689 1.760512,0.03057 0.682193,-1.283733 1.384319,0.146615 1.384319,0.146615 0,0 1.079457,-0.545014 1.18961,-0.229241 0.224285,0.642987 0.510859,1.460273 1.255182,-0.299434 0.06201,-0.14663 0.572159,0.565452 0.572159,0.565452 l 1.508355,-0.0625 0.940552,-0.741093"
       id="path13"
       sodipodi:nodetypes="csssscsscssccc" />
    <path
       style="fill:none;stroke:#825926;stroke-width:0.350278;stroke-linecap:butt;stroke-linejoin:miter;stroke-dasharray:none;stroke-opacity:1"
       d="m 13.745591,40.615467 c 0,0 1.358512,-0.127762 3.078156,-0.09406 1.719643,0.0337 2.844029,-0.674024 2.844029,-0.674024 0,0 0.132276,0.977334 0.793675,1.011036 0.661407,0.0337 1.3669,-0.454964 2.028299,-0.454964 0,0 1.621344,0.756621 2.480922,0.600492 0.686778,-0.124742 1.675808,-1.10785 1.675808,-1.10785"
       id="path14"
       sodipodi:nodetypes="cscsssc" />
  </g>
</svg>
